          <svg xmlns="http://www.w3.org/2000/svg" width="104" height="99.366" viewBox="0 0 104 99.366">
            <g transform="translate(-93.274 -5.914)">
              <g transform="translate(93.274 5.914)">
                <path d="M194.285,5.914a3.016,3.016,0,0,0-.483.045h-.009L177.871,8.672a2.938,2.938,0,0,0-2.236,1.821s0,.006,0,.009l-7.388,18.905L96.14,31.2A2.947,2.947,0,0,0,93.3,34.5l3.98,32.857a2.959,2.959,0,0,0,2.693,2.58l51.407,4.079,10.188,8,.036.027c.011.008.025.011.036.018s.023.019.036.027a4.508,4.508,0,0,1,2.058,4.32,2.026,2.026,0,0,1-.921,1.375,5.319,5.319,0,0,1-3.086.491H159.7c-.051,0-.11,0-.161,0h-.027l-61.309.179H98.2a2.937,2.937,0,1,0,.018,5.873h.009l4.482-.009a5.954,5.954,0,1,0,6.351-.027l50.486-.143a5.953,5.953,0,1,0,4.169-.634,9.571,9.571,0,0,0,5.689-5.561.726.726,0,0,0,.045-.107c.925-3.69-.715-7.7-4.1-10.31l-.027-.027c-.008-.006-.01-.02-.018-.027a.722.722,0,0,0-.1-.1l-7.219-5.65L180.5,14.179l14.285-2.428h.009a2.937,2.937,0,0,0-.51-5.838h0ZM166.072,33.942l-4.151,10.622H156.51V34.183l9.562-.241Zm-11.629.295V44.564h-9.992V34.486l9.992-.25Zm-12.058.294V44.564h-9.992V34.781Zm-12.058.3v9.73h-9.992v-9.48l9.992-.25Zm-12.058.3v9.426h-9.992V35.388l9.992-.25Zm-12.058.294v9.132H98.886L97.8,35.647ZM99.136,46.617h7.076v9.328h-5.948Zm9.142,0h9.992v9.328h-9.992Zm12.058,0h9.992v9.328h-9.992Zm12.058,0h9.992v9.328h-9.992Zm12.058,0h9.991v9.328h-9.991Zm12.058,0h4.616l-3.65,9.328h-.966ZM100.514,58h5.7v6.695l-4.938-.393-.76-6.3Zm7.764,0h9.991v7.65l-9.991-.794Zm12.058,0h9.992v8.6l-9.992-.785V58Zm12.058,0h9.992v9.569l-9.992-.794Zm12.058,0h9.992v5.677l-1.9,4.847a2.224,2.224,0,0,0-.787-.214l-7.308-.58Zm12.058,0h.152l-.152.42ZM105.89,95.827a3.494,3.494,0,1,1-3.506,3.5A3.486,3.486,0,0,1,105.89,95.827Zm56.56,0a3.494,3.494,0,1,1-3.506,3.5A3.486,3.486,0,0,1,162.45,95.827Zm-56.56,1.66a1.9,1.9,0,1,0,1.905,1.9A1.895,1.895,0,0,0,105.89,97.487Zm56.56,0a1.9,1.9,0,1,0,1.905,1.9A1.895,1.895,0,0,0,162.45,97.487Z" transform="translate(-93.274 -5.914)" fill="#a73030"/>
              </g>
            </g>
          </svg>      